<?xml version="1.0" encoding="UTF-8"?> <svg xmlns="http://www.w3.org/2000/svg" id="Layer_1" data-name="Layer 1" viewBox="0 0 1275.14 281.6"> <defs> <style>.cls-1{fill:#ea2229;}.cls-2{fill:#fff;}.cls-3{fill:#fac41f;}.cls-4{fill:#f6dc6d;}.cls-5{fill:#ec1c24;}</style> </defs> <title>Logo DFLASH</title> <g id="_Group_" data-name="&lt;Group&gt;"> <circle id="_Path_" data-name="&lt;Path&gt;" class="cls-1" cx="139.6" cy="142" r="139.6"></circle> <circle id="_Path_2" data-name="&lt;Path&gt;" class="cls-2" cx="139.6" cy="142" r="108.83"></circle> <polygon id="_Path_3" data-name="&lt;Path&gt;" class="cls-3" points="38.99 153.72 224.47 0 161.52 127.8 241.13 122.85 34.98 280.6 115.66 151.94 38.99 153.72"></polygon> <polygon id="_Path_4" data-name="&lt;Path&gt;" class="cls-4" points="224.47 0 115.66 151.94 241.13 122.85 161.52 127.8 224.47 0"></polygon> </g> <path class="cls-5" d="M377,50.16h85.13l3.22,1L471.11,54Q486,66.35,488,94.18a53.89,53.89,0,0,1-.89,10.12l-11.65,78.16a104,104,0,0,1-3.05,10.62L472,194.6a68.76,68.76,0,0,1-11.29,18,30.28,30.28,0,0,1-15.95,8.1l-.89.5-114.34.51,4.84-12.14,21-139.38.54-3-.72-11.38-1.08-5.82Zm24.55,34.41L386.34,185h21.15l7.88-2a28.81,28.81,0,0,0,4.3-3.8l.9-1a50.94,50.94,0,0,0,3.4-8.09l9.14-61,.36-4.55a2.76,2.76,0,0,1,0-2A30.24,30.24,0,0,0,431,91.65Q422.19,81.54,401.57,84.57Z" transform="translate(0.13 -0.12)"></path> <path class="cls-3" d="M535.24,47.89h108.6l-4.48,29.59q-64-10.37-69.35,20.75l-5.38,35.66,62.72-.25-4.83,31.62L560,165l-7.53,50.59,1.62,6.07H487.39l3.05-5.31L498.15,165l4.65-30.11,10-66.78Q517.85,49.91,535.24,47.89Z" transform="translate(0.13 -0.12)"></path> <path class="cls-3" d="M640.26,203.46l22-146.21-3.41-7.34h61.47L715.17,58l-17,113.83q-1.08,36.93,57.7,15.43l-5.37,34.65H648Q637.56,219.15,640.26,203.46Z" transform="translate(0.13 -0.12)"></path> <path class="cls-3" d="M911,23.35l16.31,193.26,2.15,6.58-69.36.5,4.3-6.57,1.08-2.53-2-20.75h-55.2l-35.66,71.34-.18,13.15H734.16l12.37-13.41L850.29,58l38.88-22.26ZM856,97.47,818.39,173.1h43l.89-.51-5.73-72.09Z" transform="translate(0.13 -0.12)"></path> <path class="cls-3" d="M988.27,49.91h95.88l5.2,1q18.45,18.21,8.24,56.92h-48.38q5.55-14.67-2.33-24.54h-23.66a19.41,19.41,0,0,0-5.55,6.07l-1.8,5.82-3,20.74,1.61,3.8q11.3,2.77,46.06,2.27,34.76-.75,31,27.07l-4.12,26.56-2.51,12.9-1.79,5.82-3.95,10.88a80.83,80.83,0,0,1-9.5,12.64l-9.13,4H949.21l4.3-53.12a61.23,61.23,0,0,1,4.66,4.17c1.43,1.44,2.87,2.83,4.3,4.18l72.22-.51q7.89-2.28,9.5-10.88,1.61-8.34-5.56-9.61l-66.66.26-7.17-2.28-3.59-1c-.59-.67-1.43-1.52-2.5-2.53s-2.1-3.12-3.05-6.33l10.57-71.58Q972.14,58.76,988.27,49.91Z" transform="translate(0.13 -0.12)"></path> <path class="cls-3" d="M1123.22,49.4h62.54q-3.4,4.05-6.63,12.15l-8.42,55.9-.18,3.54h34.22a24.13,24.13,0,0,0,1.35-5.18q.45-2.91.81-6.45L1214.25,61A20.19,20.19,0,0,0,1210,49.4h65a37.84,37.84,0,0,0-8.24,13.66L1244.9,208a38,38,0,0,0,.89,6.7,48.73,48.73,0,0,0,2,6.45h-62.54a44,44,0,0,0,6.63-11.63l7.17-48.07c.24-1.17.48-2.44.72-3.79a17.85,17.85,0,0,0,.18-4.3h-34.23a58.91,58.91,0,0,0-2.15,11.64l-6.63,44a31.55,31.55,0,0,0,3.76,12.14h-64.34q4.49-4.8,8.07-13.66l21.68-144.94A31.58,31.58,0,0,0,1123.22,49.4Z" transform="translate(0.13 -0.12)"></path> </svg> 